REM DIRINDEX 1\2\6,1\2\7,1\2\8,1\2\9,1\3\10,1\3\11,1\4\12,1\4\13,1\4\14,1\5\15,1\5\16,1\5\17
REM DIRNAME folder01,folder02,folder03,folder04,folder05,folder06,folder07,folder08,folder09,folder10,folder11,folder12,folder13,folder14,folder15,folder16,folder17
TITLE ""
FILE "1400_2_sec10_0968_0984.mp3" MP3
  TRACK 01 AUDIO
    TITLE "0:"
    INDEX 01 00:00:00
  TRACK 02 AUDIO
    TITLE "13:cjc029_3541"
    INDEX 01 00:00:17
  TRACK 03 AUDIO
    TITLE "0:"
    INDEX 01 00:01:17
  TRACK 04 AUDIO
    TITLE "14:cjc029_3542"
    INDEX 01 00:01:24
  TRACK 05 AUDIO
    TITLE "0:"
    INDEX 01 00:02:16
  TRACK 06 AUDIO
    TITLE "13:cjc029_3543"
    INDEX 01 00:03:06
  TRACK 07 AUDIO
    TITLE "0:"
    INDEX 01 00:04:29
  TRACK 08 AUDIO
    TITLE "14:cjc029_3544"
    INDEX 01 00:04:33
  TRACK 09 AUDIO
    TITLE "0:"
    INDEX 01 00:06:41
  TRACK 10 AUDIO
    TITLE "13:cjc029_3545"
    INDEX 01 00:07:25
  TRACK 11 AUDIO
    TITLE "0:"
    INDEX 01 00:08:38
  TRACK 12 AUDIO
    TITLE "14:cjc029_3546"
    INDEX 01 00:08:46
  TRACK 13 AUDIO
    TITLE "0:"
    INDEX 01 00:09:53
  TRACK 14 AUDIO
    TITLE "13:cjc029_3547"
    INDEX 01 00:10:41
  TRACK 15 AUDIO
    TITLE "0:"
    INDEX 01 00:11:37
  TRACK 16 AUDIO
    TITLE "14:cjc029_3548"
    INDEX 01 00:11:48
  TRACK 17 AUDIO
    TITLE "0:"
    INDEX 01 00:12:63
  TRACK 18 AUDIO
    TITLE "13:cjc029_3549"
    INDEX 01 00:13:47
  TRACK 19 AUDIO
    TITLE "0:"
    INDEX 01 00:15:13
  TRACK 20 AUDIO
    TITLE "14:cjc029_3550"
    INDEX 01 00:15:19
  TRACK 21 AUDIO
    TITLE "0:"
    INDEX 01 00:16:59
  TRACK 22 AUDIO
    TITLE "13:cjc029_3551"
    INDEX 01 00:17:41
  TRACK 23 AUDIO
    TITLE "0:"
    INDEX 01 00:19:01
  TRACK 24 AUDIO
    TITLE "14:cjc029_3552"
    INDEX 01 00:19:07
  TRACK 25 AUDIO
    TITLE "0:"
    INDEX 01 00:20:22
  TRACK 26 AUDIO
    TITLE "13:cjc029_3553"
    INDEX 01 00:21:08
  TRACK 27 AUDIO
    TITLE "0:"
    INDEX 01 00:22:30
  TRACK 28 AUDIO
    TITLE "14:cjc029_3554"
    INDEX 01 00:22:36
  TRACK 29 AUDIO
    TITLE "0:"
    INDEX 01 00:25:03
  TRACK 30 AUDIO
    TITLE "13:cjc029_3555"
    INDEX 01 00:25:58
  TRACK 31 AUDIO
    TITLE "0:"
    INDEX 01 00:26:71
  TRACK 32 AUDIO
    TITLE "14:cjc029_3556"
    INDEX 01 00:27:02
  TRACK 33 AUDIO
    TITLE "0:"
    INDEX 01 00:29:17
  TRACK 34 AUDIO
    TITLE "13:cjc029_3557"
    INDEX 01 00:30:03
  TRACK 35 AUDIO
    TITLE "0:"
    INDEX 01 00:31:16
  TRACK 36 AUDIO
    TITLE "14:cjc029_3558"
    INDEX 01 00:31:22
  TRACK 37 AUDIO
    TITLE "0:"
    INDEX 01 00:32:13
  TRACK 38 AUDIO
    TITLE "12:cjc029_3559"
    INDEX 01 00:33:64
  TRACK 39 AUDIO
    TITLE "0:"
    INDEX 01 00:35:31
  TRACK 40 AUDIO
    TITLE "13:cjc029_3560"
    INDEX 01 00:36:36
  TRACK 41 AUDIO
    TITLE "0:"
    INDEX 01 00:37:52
  TRACK 42 AUDIO
    TITLE "14:cjc029_3561"
    INDEX 01 00:37:61
  TRACK 43 AUDIO
    TITLE "0:"
    INDEX 01 00:38:73
  TRACK 44 AUDIO
    TITLE "13:cjc029_3562"
    INDEX 01 00:39:54
  TRACK 45 AUDIO
    TITLE "0:"
    INDEX 01 00:40:64
  TRACK 46 AUDIO
    TITLE "14:cjc029_3563"
    INDEX 01 00:40:70
  TRACK 47 AUDIO
    TITLE "0:"
    INDEX 01 00:44:38
  TRACK 48 AUDIO
    TITLE "13:cjc029_3564"
    INDEX 01 00:45:22
  TRACK 49 AUDIO
    TITLE "0:"
    INDEX 01 00:46:35
  TRACK 50 AUDIO
    TITLE "14:cjc029_3565"
    INDEX 01 00:46:41
  TRACK 51 AUDIO
    TITLE "0:"
    INDEX 01 00:49:08
  TRACK 52 AUDIO
    TITLE "13:cjc029_3566"
    INDEX 01 00:49:67
  TRACK 53 AUDIO
    TITLE "0:"
    INDEX 01 00:51:01
  TRACK 54 AUDIO
    TITLE "14:cjc029_3567"
    INDEX 01 00:51:07
  TRACK 55 AUDIO
    TITLE "0:"
    INDEX 01 00:53:47
  TRACK 56 AUDIO
    TITLE "13:cjc029_3568"
    INDEX 01 00:54:27
  TRACK 57 AUDIO
    TITLE "0:"
    INDEX 01 00:55:38
  TRACK 58 AUDIO
    TITLE "14:cjc029_3569"
    INDEX 01 00:55:42
  TRACK 59 AUDIO
    TITLE "0:"
    INDEX 01 00:58:62
  TRACK 60 AUDIO
    TITLE "13:cjc029_3570"
    INDEX 01 00:59:41
  TRACK 61 AUDIO
    TITLE "0:"
    INDEX 01 01:00:62
  TRACK 62 AUDIO
    TITLE "14:cjc029_3571"
    INDEX 01 01:00:66
  TRACK 63 AUDIO
    TITLE "0:"
    INDEX 01 01:02:08
  TRACK 64 AUDIO
    TITLE "13:cjc029_3572"
    INDEX 01 01:02:61
  TRACK 65 AUDIO
    TITLE "0:"
    INDEX 01 01:04:03
  TRACK 66 AUDIO
    TITLE "14:cjc029_3573"
    INDEX 01 01:04:11
  TRACK 67 AUDIO
    TITLE "0:"
    INDEX 01 01:05:38
  TRACK 68 AUDIO
    TITLE "13:cjc029_3574"
    INDEX 01 01:06:20
  TRACK 69 AUDIO
    TITLE "0:"
    INDEX 01 01:07:35
  TRACK 70 AUDIO
    TITLE "14:cjc029_3575"
    INDEX 01 01:07:41
  TRACK 71 AUDIO
    TITLE "0:"
    INDEX 01 01:10:41
